<svg xmlns="http://www.w3.org/2000/svg" xmlns:xlink="http://www.w3.org/1999/xlink" xmlns:xodm="http://www.corel.com/coreldraw/odm/2003" xml:space="preserve" version="1.1" style="shape-rendering:geometricPrecision; text-rendering:geometricPrecision; image-rendering:optimizeQuality; fill-rule:evenodd; clip-rule:evenodd" viewBox="3080.35 4652.95 5648.03 2507.43"> <defs>  <style type="text/css">       .fil3 {fill:#696A6C;fill-rule:nonzero}    .fil2 {fill:#373435;fill-rule:nonzero}    .fil0 {fill:#373435;fill-rule:nonzero}    .fil1 {fill:#ED3237;fill-rule:nonzero}     </style> </defs> <g id="Layer_x0020_1">  <metadata id="CorelCorpID_0Corel-Layer"></metadata>  <g id="_2257984516000">   <g>    <path class="fil0" d="M3483.94 5629.26l-266.48 238.71 266.48 233.22 -167.63 0 -215.83 -189.44c-13.43,-11.14 -20.13,-25.63 -20.13,-43.78 0,-8.39 1.68,-16.32 5.19,-23.8 3.35,-7.47 8.08,-13.88 14.03,-19.22l218.58 -195.7 165.8 0zm629.96 396.89c0,19.83 -2.59,37.83 -7.63,53.85 -5.04,15.86 -11.74,29.89 -20.13,41.94 -8.24,12.05 -18,22.42 -28.98,30.81 -10.98,8.54 -22.58,15.41 -34.63,20.74 -12.05,5.49 -24.25,9.46 -36.61,11.9 -12.35,2.59 -24.1,3.81 -35.08,3.81l-209.58 0c-19.98,0 -37.83,-2.59 -53.69,-7.63 -15.71,-5.04 -29.74,-11.74 -41.8,-20.29 -12.05,-8.54 -22.27,-18.3 -30.81,-29.29 -8.54,-10.98 -15.41,-22.57 -20.74,-34.63 -5.34,-12.05 -9.3,-24.25 -11.9,-36.61 -2.44,-12.35 -3.81,-23.95 -3.81,-34.63l0 -157.41c0,-29.74 5.49,-54.91 16.32,-75.66 10.98,-20.74 24.41,-37.52 40.72,-50.49 16.17,-12.96 33.87,-22.27 52.93,-27.91 19.07,-5.65 36.61,-8.54 52.78,-8.54l209.58 0 0 116.23 -208.67 0c-15.56,0 -27.3,3.96 -35.39,11.74 -8.09,7.93 -12.05,19.52 -12.05,34.63l0 156.5c0,15.71 3.96,27.61 11.9,35.69 7.78,8.08 19.37,12.05 34.63,12.05l209.58 0c15.71,0 27.46,-3.96 35.24,-12.05 7.78,-8.09 11.59,-19.68 11.59,-34.78l0 -524.26 116.23 0 0 524.26zm228.8 -419.16l-116.23 0 0 -105.09 116.23 0 0 105.09zm0 582.22l-116.23 0 0 -483.07 116.23 0 0 483.07zm687.77 -483.07c-13.12,40.88 -28.52,81 -46.07,120.65 -17.54,39.66 -37.83,77.33 -60.56,113.33 -22.73,35.85 -48.2,69.1 -76.42,99.6 -28.22,30.51 -59.34,56.9 -93.35,79.17 -34.17,22.12 -71.24,39.51 -111.35,52.17 -39.96,12.66 -83.44,19.06 -130.26,19.06 -7.93,0 -15.56,-1.52 -22.73,-4.42 -7.17,-3.05 -13.42,-7.17 -18.76,-12.35 -5.34,-5.19 -9.61,-11.29 -12.51,-18.31 -3.05,-7.02 -4.58,-14.49 -4.58,-22.57l0 -426.33 116.23 0 0 363.33c28.37,0 55.52,-6.1 81.61,-18.3 26.08,-12.2 50.64,-28.37 73.98,-48.5 23.19,-20.13 44.69,-43.02 64.52,-68.64 19.83,-25.63 37.52,-51.86 52.93,-78.86 15.56,-27 28.68,-53.39 39.5,-79.32 10.98,-25.93 19.07,-49.11 24.41,-69.71l123.4 0zm197.99 -76.87l218.89 195.7c5.95,5.34 10.68,11.74 14.19,19.22 3.36,7.48 5.04,15.41 5.04,23.8 0,8.54 -1.68,16.63 -5.34,24.25 -3.51,7.63 -8.39,14.04 -14.65,19.53l-216.29 189.44 -167.18 0 266.32 -233.22 -266.32 -238.71 165.35 0z"></path>    <path class="fil1" d="M6144.89 5664.49l-255.95 0 0 524.72 -116.23 0 0 -524.72 -256.56 0 0 -116.07 628.74 0 0 116.07zm541.19 201.65c0,16.02 -2.9,33.41 -8.54,52.02 -5.65,18.61 -14.8,35.85 -27.46,51.86 -12.66,15.86 -29.29,29.28 -49.57,39.96 -20.44,10.83 -45.3,16.17 -74.44,16.17l-209.58 0 0 -110.43 209.58 0c15.71,0 27.91,-4.88 36.61,-14.49 8.69,-9.76 12.96,-21.66 12.96,-36 0,-15.26 -4.88,-27.15 -14.49,-35.69 -9.76,-8.7 -21.35,-12.96 -35.08,-12.96l-209.58 0c-15.87,0 -28.07,4.73 -36.61,14.49 -8.69,9.61 -12.96,21.66 -12.96,36l0 162.14c0,15.56 4.73,27.61 14.49,36.15 9.61,8.7 21.66,12.96 36,12.96l208.67 0 0 110.89 -209.58 0c-16.17,0 -33.41,-2.9 -52.02,-8.54 -18.76,-5.64 -36,-14.8 -51.86,-27.45 -16.02,-12.66 -29.28,-29.13 -40.11,-49.57 -10.68,-20.44 -16.02,-45.15 -16.02,-74.44l0 -163.06c0,-16.17 2.9,-33.41 8.54,-52.01 5.65,-18.76 14.8,-36 27.46,-51.86 12.66,-16.02 29.13,-29.29 49.57,-40.12 20.44,-10.68 45.15,-16.02 74.44,-16.02l209.58 0c16.02,0 33.41,2.9 52.02,8.54 18.61,5.64 36,14.8 51.86,27.46 15.86,12.66 29.28,29.13 39.96,49.57 10.68,20.44 16.17,45.15 16.17,74.44zm546.07 323.07l-315.13 0c-16.02,0 -33.56,-2.9 -52.62,-8.54 -19.07,-5.64 -36.76,-14.94 -52.93,-27.91 -16.32,-12.96 -29.9,-29.74 -40.73,-50.49 -10.83,-20.74 -16.32,-46.06 -16.32,-76.11l0 -157.41c0,-10.98 1.22,-22.57 3.81,-34.78 2.44,-12.2 6.41,-24.41 11.75,-36.45 5.49,-12.05 12.35,-23.65 20.9,-34.63 8.39,-10.98 18.76,-20.74 30.81,-28.98 12.05,-8.39 25.93,-15.1 41.79,-20.13 15.71,-5.04 33.71,-7.63 53.54,-7.63l315.13 0 0 116.23 -315.13 0c-15.1,0 -26.69,3.81 -34.62,11.59 -7.78,7.78 -11.75,19.68 -11.75,35.69l0 156.5c0,15.1 3.97,26.69 12.05,34.78 8.09,8.08 19.83,12.05 35.24,12.05l314.22 0 0 116.23zm633.17 0l-116.23 0 0 -320.47c0,-15.1 -3.81,-26.69 -11.59,-34.63 -7.78,-7.78 -19.37,-11.74 -34.78,-11.74l-209.58 0 0 -116.23 209.58 0c10.98,0 22.58,1.22 34.78,3.81 12.2,2.59 24.41,6.41 36.46,11.9 12.05,5.34 23.64,12.2 34.62,20.74 10.98,8.39 20.75,18.76 28.98,30.81 8.39,12.05 15.1,25.93 20.13,41.8 5.03,15.71 7.63,33.71 7.63,53.54l0 320.47zm-419.16 0l-116.23 0 0 -687.31 116.23 0 0 687.31z"></path>   </g>   <path class="fil2" d="M7038.37 6763.52l-44.37 -193.45c-33.9,2.39 -68.63,-9.34 -94.55,-35.27 -47.47,-47.47 -47.47,-124.43 0,-171.9 47.47,-47.47 124.43,-47.47 171.9,0 47.47,47.47 47.47,124.43 0,171.9 -12.05,12.05 -26,21.03 -40.88,26.96l44.34 193.38c27.65,-3.2 56.48,0.38 84.02,11.78 25.21,10.45 46.54,26.3 63.23,45.63l180.39 -123.92c-7.65,-15.92 -11.94,-33.76 -11.94,-52.61 0,-67.12 54.43,-121.56 121.56,-121.56 67.14,0 121.57,54.43 121.57,121.56 0,17.04 -3.52,33.26 -9.85,47.97l168.09 105.38c17.29,-21.82 40.2,-39.67 67.74,-51.07 25.21,-10.45 51.49,-14.34 76.96,-12.46l39.94 -215.19c-16.65,-5.84 -32.31,-15.43 -45.63,-28.75 -47.47,-47.48 -47.47,-124.43 0,-171.91 47.47,-47.47 124.43,-47.47 171.9,0 12.05,12.05 21.02,26 26.96,40.87l193.37 -44.34c-3.2,-27.65 0.38,-56.48 11.78,-84.02 10.43,-25.21 26.28,-46.54 45.63,-63.22l-123.92 -180.39c-15.92,7.65 -33.76,11.94 -52.61,11.94 -67.12,0 -121.55,-54.43 -121.55,-121.55 0,-67.14 54.43,-121.57 121.55,-121.57 17.04,0 33.26,3.53 47.97,9.85l105.38 -168.09c-21.82,-17.29 -39.67,-40.2 -51.09,-67.74 -10.44,-25.22 -14.32,-51.49 -12.44,-76.98l-215.19 -39.94c-5.84,16.67 -15.42,32.32 -28.75,45.65 -47.47,47.47 -124.43,47.47 -171.9,0 -47.47,-47.47 -47.47,-124.43 0,-171.9 12.05,-12.05 26,-21.02 40.88,-26.95l-44.34 -193.38c-27.65,3.21 -56.48,-0.38 -84.02,-11.78 -22.79,-9.44 -42.41,-23.3 -58.3,-40.17l-178.91 134.72c3.59,11.48 5.53,23.67 5.53,36.34 0,67.13 -54.43,121.55 -121.57,121.55 -67.12,0 -121.55,-54.43 -121.55,-121.55 0,-21.96 5.84,-42.52 16.02,-60.3l-170.41 -98.11c-17.67,24.13 -41.96,43.86 -71.6,56.13 -25.21,10.45 -51.49,14.33 -76.98,12.45l-39.94 215.19c16.67,5.84 32.32,15.43 45.65,28.75 47.47,47.47 47.47,124.43 0,171.9 -47.47,47.47 -124.44,47.47 -171.92,0 -47.47,-47.47 -47.47,-124.43 0,-171.9 24.64,-24.64 57.22,-36.46 89.49,-35.53l39.96 -215.26c-46.73,-14.2 -86.98,-48.44 -107.13,-97.07 -35.74,-86.26 5.23,-185.13 91.48,-220.86 86.25,-35.77 185.14,5.22 220.88,91.47 18.3,44.19 16.46,91.67 -1.27,132.31l175.44 101c21.59,-19.7 50.33,-31.72 81.87,-31.72 40.91,0 77.05,20.21 99.09,51.16l173.39 -130.56c-26.13,-44.2 -31.89,-99.72 -10.72,-150.82 35.73,-86.25 134.62,-127.19 220.87,-91.46 86.26,35.72 127.22,134.59 91.48,220.84 -19.17,46.3 -56.55,79.54 -100.39,94.89l44.35 193.45c33.92,-2.39 68.65,9.34 94.56,35.27 24.64,24.62 36.46,57.2 35.53,89.48l215.26 39.96c14.2,-46.73 48.44,-86.98 97.08,-107.13 86.25,-35.73 185.14,5.22 220.86,91.48 35.73,86.27 -5.23,185.14 -91.48,220.88 -46.29,19.17 -96.24,16.25 -138.09,-3.92l-105.43 168.17c25.68,22.29 41.93,55.14 41.93,91.81 0,34.83 -14.67,66.22 -38.15,88.37l123.95 180.47c43.09,-23 95.76,-27.24 144.4,-7.09 86.27,35.72 127.22,134.61 91.5,220.87 -35.73,86.25 -134.61,127.21 -220.86,91.48 -46.3,-19.17 -79.54,-56.56 -94.89,-100.4l-193.45 44.35c2.4,33.92 -9.33,68.65 -35.27,94.57 -24.62,24.64 -57.2,36.46 -89.47,35.52l-39.96 215.26c46.73,14.2 86.97,48.44 107.13,97.08 35.72,86.25 -5.23,185.14 -91.49,220.86 -86.25,35.74 -185.14,-5.22 -220.87,-91.48 -19.17,-46.3 -16.25,-96.24 3.91,-138.09l-168.17 -105.43c-22.29,25.68 -55.14,41.93 -91.81,41.93 -34.84,0 -66.22,-14.67 -88.39,-38.15l-180.46 123.97c23,43.07 27.25,95.74 7.09,144.4 -35.72,86.25 -134.61,127.2 -220.86,91.48 -86.26,-35.72 -127.22,-134.61 -91.48,-220.87 19.17,-46.3 56.56,-79.54 100.4,-94.88z"></path>   <g>    <path class="fil3" d="M3845.7 6479.21c0,8.48 -1.11,16.18 -3.26,23.02 -2.15,6.78 -5.02,12.78 -8.61,17.94 -3.52,5.15 -7.7,9.59 -12.39,13.18 -4.7,3.65 -9.65,6.59 -14.8,8.87 -5.15,2.35 -10.37,4.04 -15.65,5.09 -5.28,1.11 -10.31,1.63 -15,1.63l-134.55 0 0 -49.7 134.16 0c6.72,0 11.8,-1.69 15.26,-5.15 3.46,-3.46 5.15,-8.42 5.15,-14.87 -0.59,-13.24 -7.3,-19.89 -20.02,-19.89l-77.03 0c-10.96,0 -20.28,-1.89 -27.91,-5.74 -7.63,-3.78 -13.83,-8.61 -18.59,-14.35 -4.83,-5.74 -8.22,-11.87 -10.37,-18.52 -2.09,-6.59 -3.13,-12.78 -3.13,-18.52 0,-11.09 1.96,-20.41 5.94,-27.98 3.91,-7.56 8.93,-13.76 14.87,-18.46 6,-4.7 12.52,-8.09 19.5,-10.24 7.04,-2.09 13.57,-3.13 19.7,-3.13l122.1 0 0 49.7 -121.7 0c-2.54,0 -4.57,0.26 -6,0.85 -1.5,0.59 -2.55,1.3 -3.26,2.28 -0.72,0.98 -1.11,1.96 -1.24,3.06 -0.13,1.11 -0.19,2.15 -0.19,3.13 0.13,2.09 0.52,3.65 1.11,4.76 0.65,1.17 1.44,2.02 2.41,2.54 0.98,0.46 2.02,0.78 3.26,0.85 1.17,0.07 2.35,0.07 3.52,0.07l77.03 0c12.72,0 23.55,2.28 32.48,6.91 8.87,4.57 16.11,10.31 21.59,17.28 5.48,6.91 9.46,14.48 11.94,22.63 2.48,8.15 3.72,15.72 3.72,22.76zm497.07 89.62c0,8.54 -1.11,16.17 -3.26,23.02 -2.15,6.78 -5.02,12.78 -8.61,17.94 -3.59,5.15 -7.7,9.59 -12.39,13.17 -4.76,3.65 -9.65,6.59 -14.8,8.87 -5.22,2.35 -10.37,4.04 -15.59,5.09 -5.22,1.11 -10.17,1.63 -14.93,1.63l-89.62 0 0 -49.7 89.62 0c6.65,0 11.61,-1.7 14.93,-5.15 3.33,-3.46 4.96,-8.41 4.96,-14.87l0 -226.45 49.7 0 0 226.45zm-69.59 -19.89l-89.62 0c-7.11,0 -14.74,-1.24 -22.83,-3.65 -8.09,-2.41 -15.65,-6.39 -22.63,-11.93 -6.98,-5.55 -12.78,-12.72 -17.41,-21.59 -4.57,-8.87 -6.85,-19.7 -6.85,-32.55l0 -136.83 49.7 0 0 136.83c0,6.46 1.7,11.42 5.15,14.87 3.39,3.46 8.54,5.15 15.26,5.15l89.22 0 0 49.7zm551.13 -69.72c0,8.48 -1.11,16.18 -3.26,23.02 -2.15,6.78 -5.02,12.78 -8.61,17.94 -3.52,5.15 -7.7,9.59 -12.39,13.18 -4.7,3.65 -9.65,6.59 -14.8,8.87 -5.15,2.35 -10.37,4.04 -15.65,5.09 -5.28,1.11 -10.31,1.63 -15,1.63l-134.55 0 0 -49.7 134.16 0c6.72,0 11.8,-1.69 15.26,-5.15 3.46,-3.46 5.15,-8.42 5.15,-14.87 -0.59,-13.24 -7.3,-19.89 -20.02,-19.89l-77.03 0c-10.96,0 -20.28,-1.89 -27.91,-5.74 -7.63,-3.78 -13.83,-8.61 -18.59,-14.35 -4.83,-5.74 -8.22,-11.87 -10.37,-18.52 -2.09,-6.59 -3.13,-12.78 -3.13,-18.52 0,-11.09 1.96,-20.41 5.94,-27.98 3.91,-7.56 8.93,-13.76 14.87,-18.46 6,-4.7 12.52,-8.09 19.5,-10.24 7.04,-2.09 13.57,-3.13 19.7,-3.13l122.1 0 0 49.7 -121.7 0c-2.54,0 -4.57,0.26 -6,0.85 -1.5,0.59 -2.55,1.3 -3.26,2.28 -0.72,0.98 -1.11,1.96 -1.24,3.06 -0.13,1.11 -0.19,2.15 -0.19,3.13 0.13,2.09 0.52,3.65 1.11,4.76 0.65,1.17 1.44,2.02 2.41,2.54 0.98,0.46 2.02,0.78 3.26,0.85 1.17,0.07 2.35,0.07 3.52,0.07l77.03 0c12.72,0 23.55,2.28 32.48,6.91 8.87,4.57 16.11,10.31 21.59,17.28 5.48,6.91 9.46,14.48 11.94,22.63 2.48,8.15 3.72,15.72 3.72,22.76zm453.63 -87.13l-86.75 0 0 156.86 -50.22 0 0 -156.86 -64.57 0 0 -49.7 64.57 0 0 -67.44 50.22 0 0 67.44 86.75 0 0 49.7zm488.65 18.72c0,6.85 -1.24,14.28 -3.65,22.24 -2.41,7.96 -6.33,15.33 -11.74,22.18 -5.41,6.78 -12.52,12.52 -21.2,17.09 -8.74,4.63 -19.37,6.91 -31.83,6.91l-89.62 0 0 -47.22 89.62 0c6.72,0 11.93,-2.09 15.65,-6.2 3.72,-4.17 5.54,-9.26 5.54,-15.39 0,-6.52 -2.09,-11.61 -6.2,-15.26 -4.17,-3.72 -9.13,-5.54 -15,-5.54l-89.62 0c-6.78,0 -12,2.02 -15.65,6.2 -3.72,4.11 -5.54,9.26 -5.54,15.39l0 69.33c0,6.65 2.02,11.8 6.2,15.46 4.11,3.72 9.26,5.54 15.39,5.54l89.22 0 0 47.42 -89.62 0c-6.91,0 -14.28,-1.24 -22.24,-3.65 -8.02,-2.41 -15.39,-6.33 -22.18,-11.74 -6.85,-5.41 -12.52,-12.46 -17.15,-21.2 -4.56,-8.74 -6.85,-19.3 -6.85,-31.83l0 -69.72c0,-6.91 1.24,-14.28 3.65,-22.24 2.41,-8.02 6.33,-15.39 11.74,-22.18 5.41,-6.85 12.46,-12.52 21.2,-17.15 8.74,-4.56 19.3,-6.85 31.83,-6.85l89.62 0c6.85,0 14.28,1.24 22.24,3.65 7.96,2.41 15.39,6.33 22.17,11.74 6.78,5.41 12.52,12.46 17.09,21.2 4.56,8.74 6.91,19.3 6.91,31.83zm452.32 138.14l-49.7 0 0 -137.03c0,-6.46 -1.7,-11.41 -5.15,-14.81 -3.46,-3.33 -8.54,-5.02 -15.33,-5.02l-64.57 0 0 156.86 -49.7 0 0 -181.91c0,-3.46 0.65,-6.65 1.96,-9.65 1.24,-3 3.07,-5.61 5.35,-7.83 2.28,-2.22 4.96,-3.98 8.02,-5.28 3.07,-1.24 6.33,-1.89 9.72,-1.89l89.61 0c6.91,0 14.28,1.24 22.18,3.65 7.89,2.41 15.39,6.26 22.57,11.61l0 -15.26 67.24 0c4.7,0 9.65,0.52 14.94,1.63 5.22,1.11 10.37,2.74 15.52,5.09 5.15,2.28 10.11,5.22 14.81,8.87 4.76,3.59 8.87,8.02 12.46,13.18 3.59,5.15 6.39,11.09 8.61,17.87 2.15,6.72 3.2,14.41 3.2,22.89l0 137.03 -49.63 0 0 -137.03c0,-6.46 -1.63,-11.41 -4.89,-14.81 -3.26,-3.33 -8.22,-5.02 -15,-5.02l-44.68 0c1.63,6.06 2.48,12.72 2.48,19.83l0 137.03z"></path>    <g>     <path class="fil3" d="M7606.92 5172.01c-25.69,62.02 3.76,133.14 65.78,158.83 62.02,25.68 133.14,-3.76 158.83,-65.8 25.68,-62.02 -3.77,-133.12 -65.8,-158.81 -62.02,-25.69 -133.12,3.76 -158.81,65.78z"></path>     <path class="fil3" d="M8087.67 5480.69c-62.03,25.7 -91.48,96.81 -65.78,158.83 25.68,62.02 96.8,91.48 158.81,65.78 62.02,-25.69 91.48,-96.79 65.79,-158.81 -25.7,-62.04 -96.8,-91.48 -158.82,-65.8z"></path>     <path class="fil3" d="M8209.33 6038.92c-62.02,-25.69 -133.14,3.77 -158.83,65.79 -25.68,62.02 3.76,133.14 65.78,158.83 62.04,25.69 133.14,-3.76 158.83,-65.78 25.69,-62.04 -3.77,-133.13 -65.79,-158.83z"></path>     <path class="fil3" d="M7900.63 6519.67c-25.68,-62.02 -96.79,-91.48 -158.81,-65.79 -62.02,25.69 -91.48,96.8 -65.78,158.81 25.69,62.03 96.8,91.48 158.81,65.78 62.03,-25.68 91.48,-96.8 65.78,-158.81z"></path>     <path class="fil3" d="M7342.43 6641.33c25.69,-62.02 -3.77,-133.14 -65.78,-158.83 -62.04,-25.68 -133.14,3.76 -158.83,65.8 -25.69,62.02 3.76,133.12 65.79,158.81 62.03,25.69 133.13,-3.76 158.83,-65.78z"></path>     <path class="fil3" d="M7048.7 5293.67c25.69,62.02 96.81,91.48 158.83,65.78 62.02,-25.69 91.48,-96.79 65.78,-158.81 -25.69,-62.03 -96.79,-91.48 -158.83,-65.78 -62.02,25.68 -91.46,96.79 -65.79,158.81z"></path>     <path class="fil3" d="M6853.68 6580.56c66.01,66.01 66.01,173.05 0,239.07 -66.01,66.02 -173.05,66.02 -239.07,0 -66.01,-66.02 -66.01,-173.06 0,-239.07 66.02,-66.01 173.06,-66.01 239.07,0z"></path>     <path class="fil3" d="M6561.71 5046.6c66.03,-66.01 173.05,-66.01 239.07,0 66.01,66.03 66.01,173.06 0,239.07 -66.02,66.01 -173.04,66.01 -239.07,0 -66.02,-66.01 -66.02,-173.05 0,-239.07z"></path>     <path class="fil3" d="M8095.67 5232.78c-66.03,-66.01 -66.03,-173.05 0,-239.07 66.01,-66.01 173.05,-66.01 239.06,0 66.02,66.02 66.02,173.06 0,239.07 -66.01,66.01 -173.05,66.01 -239.06,0z"></path>     <path class="fil3" d="M8390.3 5869.28c0,-93.36 75.68,-169.06 169.04,-169.06 93.35,0 169.04,75.7 169.04,169.06 0,93.36 -75.69,169.04 -169.04,169.04 -93.36,0 -169.04,-75.68 -169.04,-169.04z"></path>     <path class="fil3" d="M8387.63 6527.67c66.01,66.01 66.01,173.05 0,239.07 -66.03,66.01 -173.06,66.01 -239.07,0 -66.01,-66.02 -66.01,-173.06 0,-239.07 66.01,-66.01 173.04,-66.01 239.07,0z"></path>     <path class="fil3" d="M7512.07 6822.3c93.36,0 169.06,75.68 169.06,169.04 0,93.36 -75.7,169.04 -169.06,169.04 -93.36,0 -169.04,-75.68 -169.04,-169.04 0,-93.36 75.68,-169.04 169.04,-169.04z"></path>     <path class="fil3" d="M7437.26 4991.04c-93.36,0 -169.04,-75.68 -169.04,-169.04 0,-93.37 75.68,-169.05 169.04,-169.05 93.36,0 169.06,75.69 169.06,169.05 0,93.36 -75.7,169.04 -169.06,169.04z"></path>    </g>   </g>  </g> </g></svg>